<?xml version="1.0" encoding="UTF-8"?>
<svg version="1.1" xmlns="http://www.w3.org/2000/svg" width="475" height="475">
<path d="M0 0 C1.22847656 -0.00257812 2.45695312 -0.00515625 3.72265625 -0.0078125 C6.9375 0.125 6.9375 0.125 9.9375 1.125 C11.67574375 1.36061917 13.41895323 1.56051351 15.1640625 1.73828125 C16.19660156 1.85236328 17.22914063 1.96644531 18.29296875 2.08398438 C20.44825627 2.31702323 22.60452383 2.54119346 24.76171875 2.75585938 C34.08492571 3.81295161 42.96801334 6.5175646 49.9375 13.125 C55.02502499 20.13001161 55.62891859 26.71585498 54.9375 35.125 C53.85563609 40.20226232 52.40829366 45.14855121 50.9375 50.125 C48.320666 59.48907481 48.320666 59.48907481 47.9375 69.125 C53.59027836 70.81364777 59.21590579 72.2172979 65.0300293 73.20507812 C80.24759026 75.80133838 80.24759026 75.80133838 85.875 82.1875 C89.63666819 87.54502742 89.77147176 92.76878278 88.9375 99.125 C87.76743032 102.39300804 86.47385171 105.53237366 85.07641602 108.70483398 C83.18192081 113.12155604 82.61890664 116.29668801 82.96484375 121.015625 C82.86957803 128.36469468 78.45200226 134.097862 73.65625 139.21875 C70.09217836 143.17162946 67.65716434 147.82013089 65.09765625 152.4609375 C58.46330811 164.46325284 51.54549061 174.37599127 38.01953125 179.15625 C31.72276396 180.81986091 25.29117458 181.78507571 18.84765625 182.6953125 C16.00667991 183.07816689 16.00667991 183.07816689 13.515625 183.66796875 C-0.18003406 186.09583558 -12.80929266 183.37540284 -24.27734375 175.62890625 C-26.61197424 173.86843443 -28.83978343 172.02506416 -31.0625 170.125 C-32.04734375 169.29742187 -33.0321875 168.46984375 -34.046875 167.6171875 C-41.08484878 161.54512404 -48.04559852 154.81154566 -50.80981445 145.64746094 C-52.46217437 142.32019867 -54.0414973 141.74335813 -57.41015625 140.2578125 C-58.49103516 139.76410156 -59.57191406 139.27039063 -60.68554688 138.76171875 C-62.38807617 138.01341797 -62.38807617 138.01341797 -64.125 137.25 C-85.43420741 127.80403371 -85.43420741 127.80403371 -89.41015625 118.203125 C-91.84388249 110.45017675 -90.7116988 104.36893682 -88.65625 96.5546875 C-87.88413377 92.09470032 -88.48346078 88.36257298 -89.609375 84.01171875 C-91.33931587 76.80860289 -90.54386772 68.65693074 -87.0625 62.125 C-83.13988597 56.70548039 -78.53658137 52.44421535 -73.0859375 48.609375 C-70.11271814 46.42824883 -67.43760681 43.94033734 -64.7265625 41.4453125 C-63.0625 40.125 -63.0625 40.125 -61.0625 40.125 C-61.0625 39.465 -61.0625 38.805 -61.0625 38.125 C-59.94786799 37.01036799 -58.82774538 35.90091605 -57.6875 34.8125 C-55.65173218 32.69843342 -53.87554524 30.43251212 -52.0625 28.125 C-39.99432437 12.86430511 -19.99571966 -0.04205199 0 0 Z " fill="#5372FC" transform="translate(242.0625,100.875)"/>
<path d="M0 0 C6.0271906 2.52397226 9.88422324 7.39796055 13 13 C13.71965041 17.23747094 13.81508271 21.24856245 13.859375 25.53125 C14.02537546 36.72163428 17.41730278 46.7068376 22.92041016 56.32763672 C28.75953483 66.63823696 32.94837528 78.04887689 33 90 C34.27259511 89.54658132 35.54301243 89.08704773 36.8125 88.625 C37.52019531 88.36976563 38.22789062 88.11453125 38.95703125 87.8515625 C41.24773359 86.9734231 41.24773359 86.9734231 44 85 C44.45375 86.134375 44.9075 87.26875 45.375 88.4375 C46.57095806 92.04721692 46.57095806 92.04721692 49 93 C49.40729228 95.32156597 49.74438677 97.6568787 50 100 C52.24875747 100.86850174 52.24875747 100.86850174 55 101 C57.81099414 99.1687189 57.81099414 99.1687189 60 97 C60.45375 97.94875 60.9075 98.8975 61.375 99.875 C62.80238254 103.00313679 62.80238254 103.00313679 65 105 C67.48415905 105.58425344 69.97046897 105.95217657 72.4921875 106.33984375 C75.27220786 107.07165596 76.7881557 108.20584303 79 110 C81.14733927 110.70514846 81.14733927 110.70514846 83 111 C83 108.69 83 106.38 83 104 C83.65226562 103.78085938 84.30453125 103.56171875 84.9765625 103.3359375 C85.85054688 103.01882812 86.72453125 102.70171875 87.625 102.375 C88.48351562 102.07335937 89.34203125 101.77171875 90.2265625 101.4609375 C92.87901443 100.06373043 93.80581044 99.15495647 95.67626953 96.94970703 C98.51312269 94.06395666 100.66105871 93.30590039 104.81231689 93.2689209 C105.51878357 93.2936145 106.22525024 93.31830811 106.953125 93.34375 C108.06527374 93.34936951 108.06527374 93.34936951 109.19989014 93.35510254 C110.75649183 93.36847731 112.31303008 93.3961759 113.86914062 93.4375 C116.25714183 93.50018748 118.64250503 93.51948278 121.03125 93.53125 C122.54690737 93.54957795 124.06253783 93.57032567 125.578125 93.59375 C126.6499704 93.60649963 126.6499704 93.60649963 127.74346924 93.61950684 C132.76545293 93.76545293 132.76545293 93.76545293 135 96 C134.27554688 96.80695313 133.55109375 97.61390625 132.8046875 98.4453125 C129.61846951 102.26832565 127.43145112 106.48659538 125.125 110.875 C118.82607164 122.44528961 112.03894384 131.45210017 99.08203125 136.03125 C92.78526396 137.69486091 86.35367458 138.66007571 79.91015625 139.5703125 C77.06917991 139.95316689 77.06917991 139.95316689 74.578125 140.54296875 C60.88246594 142.97083558 48.25320734 140.25040284 36.78515625 132.50390625 C34.45052576 130.74343443 32.22271657 128.90006416 30 127 C29.01515625 126.17242187 28.0303125 125.34484375 27.015625 124.4921875 C19.97765122 118.42012404 13.01690148 111.68654566 10.25268555 102.52246094 C8.60032563 99.19519867 7.0210027 98.61835813 3.65234375 97.1328125 C2.57146484 96.63910156 1.49058594 96.14539063 0.37695312 95.63671875 C-1.32557617 94.88841797 -1.32557617 94.88841797 -3.0625 94.125 C-24.37170741 84.67903371 -24.37170741 84.67903371 -28.34765625 75.078125 C-31.11377148 66.26630883 -29.15180732 58.82027953 -27 50 C-26.65725594 48.33524314 -26.32004778 46.66926879 -26 45 C-25.34 45.33 -24.68 45.66 -24 46 C-21.85303235 41.85941954 -19.87998787 37.78386095 -18.23828125 33.41796875 C-15.92621119 27.58012657 -12.98956754 22.1662421 -9.9375 16.6875 C-9.40833984 15.72521484 -8.87917969 14.76292969 -8.33398438 13.77148438 C-1.64619502 1.64619502 -1.64619502 1.64619502 0 0 Z " fill="#5372FD" transform="translate(181,144)"/>
<path d="M0 0 C0.40992188 0.85464844 0.40992188 0.85464844 0.828125 1.7265625 C6.54717037 12.82151051 15.98282859 22.49925122 25.765625 30.16796875 C32.72908907 35.87752233 34.82218726 45.45618379 36 54 C36.29571863 59.00317459 36.18072739 63.99318206 36 69 C36 69.33 36 69.66 36 70 C36.68964844 69.94199219 37.37929688 69.88398438 38.08984375 69.82421875 C45.40540067 69.47299174 50.02414014 70.7613087 56 75 C56.33 75.33 56.66 75.66 57 76 C71.53552558 77.64110773 88.04334631 73.85152075 100.84375 66.91796875 C103.36657534 65.84393985 105.28526041 65.83271851 108 66 C103.46824865 69.69447627 98.48839081 71.16824957 93 73 C91.948125 73.35449219 90.89625 73.70898438 89.8125 74.07421875 C64.3290365 82.31346356 64.3290365 82.31346356 54.67578125 77.94921875 C52.5625 76.625 52.5625 76.625 50.75390625 75.2890625 C46.95304877 72.49555923 43.84187089 71.51671004 39.0390625 71.59765625 C35.43991877 72.30783212 33.549147 74.450853 31 77 C31.33 77.33 31.66 77.66 32 78 C33.32 78 34.64 78 36 78 C35.67 79.65 35.34 81.3 35 83 C35.45375 82.54625 35.9075 82.0925 36.375 81.625 C37.58333333 80.41666667 38.79166667 79.20833333 40 78 C39.75 80.375 39.75 80.375 39 83 C36.953125 84.1640625 36.953125 84.1640625 35 85 C35.50660156 86.25103516 35.50660156 86.25103516 36.0234375 87.52734375 C39.73576098 96.89398652 42.36731198 104.8989205 42 115 C47.92548319 113.79071772 51.91831885 111.53135788 56 107 C56.495 105.515 56.495 105.515 57 104 C68.88 103.67 80.76 103.34 93 103 C95.31 98.38 97.62 93.76 100 89 C100.66 88.67 101.32 88.34 102 88 C103.10200961 91.98145406 102.90752087 94.2051548 101.3125 98 C100.81169922 99.2375 100.81169922 99.2375 100.30078125 100.5 C98.7369901 103.50548449 97.45067682 105.62240793 95 108 C92.05480246 108.36110146 89.7131866 108.42461563 86.796875 108.2421875 C85.16017008 108.1935428 83.52345075 108.14538109 81.88671875 108.09765625 C79.32104682 107.99232506 76.75649827 107.87532622 74.19189453 107.74658203 C62.86509538 106.72153523 62.86509538 106.72153523 53.078125 111.3828125 C52.5512207 112.00816895 52.02431641 112.63352539 51.48144531 113.27783203 C49.7771881 115.259017 48.43810817 116.08296121 46 117 C44.68 117 43.36 117 42 117 C42 119.31 42 121.62 42 124 C36.46357616 123.37086093 36.46357616 123.37086093 34.125 121.5 C31.90389216 119.65469505 31.90389216 119.65469505 28.125 119.75 C25.36423984 119.5276916 24.26521566 119.23108453 22.1484375 117.38671875 C20.67227191 115.64120541 19.29702264 113.88166542 18 112 C17.443125 112.515625 16.88625 113.03125 16.3125 113.5625 C14 115 14 115 11.3125 114.75 C9 114 9 114 8 113 C7.95907063 110.66702567 7.95758277 108.33294775 8 106 C7.38125 105.773125 6.7625 105.54625 6.125 105.3125 C3.38589791 103.62070165 2.94975528 102.00755839 2 99 C1.649375 99.474375 1.29875 99.94875 0.9375 100.4375 C-1.82607942 102.66619308 -4.53649663 102.58758284 -8 103 C-8.15855469 102.15179688 -8.31710938 101.30359375 -8.48046875 100.4296875 C-10.80520461 88.74178899 -14.15022885 78.07218865 -20.0625 67.6875 C-25.56110141 57.8654634 -28.0714295 47.60382834 -28.11376953 36.36254883 C-28.16094632 27.22563578 -30.42782735 22.54563629 -36.84765625 16.02734375 C-37.55792969 15.35832031 -38.26820313 14.68929687 -39 14 C-42.31801949 15.0350459 -43.06368762 16.10850979 -44.859375 19.16796875 C-45.50112983 20.50232048 -46.13063774 21.8426081 -46.75 23.1875 C-47.44587652 24.6429043 -48.14384677 26.09730911 -48.84375 27.55078125 C-49.19824219 28.29150879 -49.55273438 29.03223633 -49.91796875 29.79541016 C-51.59421504 33.21068633 -53.42364281 36.5383611 -55.25 39.875 C-57.93412646 44.80672073 -60.26272802 49.73894672 -62.11328125 55.046875 C-63.09100961 57.20046169 -64.24032533 58.44241682 -66 60 C-66 59.34 -66 58.68 -66 58 C-66.66 58 -67.32 58 -68 58 C-71.24516621 50.49555314 -71.06545103 41.79559684 -68.16796875 34.19140625 C-64.65098858 27.5926575 -59.05388219 22.72388965 -53.015625 18.48046875 C-50.10133992 16.33993765 -47.49709279 13.88674181 -44.859375 11.41796875 C-42.88350794 9.91116257 -41.42810018 9.41363653 -39 9 C-38.505 9.78375 -38.01 10.5675 -37.5 11.375 C-36.14918375 13.49354635 -34.83316841 15.1622157 -33.0234375 16.921875 C-25.54261421 24.59311925 -25.81712336 32.59501194 -25.1875 42.72998047 C-24.31766412 53.26088409 -19.21597886 63.04367405 -14.96875 72.55078125 C-14.43544067 73.74562134 -14.43544067 73.74562134 -13.89135742 74.96459961 C-13.18683085 76.53866406 -12.47881164 78.11117121 -11.7668457 79.68188477 C-6.69554427 90.95296083 -6.69554427 90.95296083 -6.875 96.875 C-6.89304688 97.65617187 -6.91109375 98.43734375 -6.9296875 99.2421875 C-6.95289063 99.82226562 -6.97609375 100.40234375 -7 101 C-2.18877153 99.47444034 -2.18877153 99.47444034 1 96 C1.25127868 90.23315439 0.62657819 85.0180403 -0.5 79.375 C-1.46201033 74.50428102 -2.18917869 69.99747029 -2 65 C4.21073136 67.82053348 10.13167794 72.72554549 13 79 C13 79.66 13 80.32 13 81 C14.258125 80.938125 15.51625 80.87625 16.8125 80.8125 C20.70743136 80.82628737 20.70743136 80.82628737 23 82.1875 C24.30894168 84.55995679 24.21620175 86.3335118 24 89 C24.94875 89.103125 25.8975 89.20625 26.875 89.3125 C30 90 30 90 32 93 C32 94.32 32 95.64 32 97 C33.32 97 34.64 97 36 97 C35.3732919 91.61031031 34.05013808 87.9503342 30.07421875 84.16796875 C27.88186463 81.87652518 26.58776793 79.74320459 25.125 76.9375 C24.6196875 75.98101562 24.114375 75.02453125 23.59375 74.0390625 C23.0678125 73.03617187 22.541875 72.03328125 22 71 C20.87857311 68.93555504 19.75372848 66.8729619 18.625 64.8125 C17.75 63.20833333 16.875 61.60416667 16 60 C20.17087411 61.39029137 21.18208698 64.27843718 23.1875 67.9375 C23.55552734 68.58396484 23.92355469 69.23042969 24.30273438 69.89648438 C27 74.71553224 27 74.71553224 27 77 C29.35148243 75.74189834 29.35148243 75.74189834 31 73 C30.79505134 68.24226319 29.73712678 63.70742632 27.8515625 59.33984375 C27 57 27 57 28 54 C29.65 57.96 31.3 61.92 33 66 C33.49538566 54.97766912 33.31218192 42.3879297 25.75 33.5625 C24.52297572 32.35127431 23.27202472 31.16387687 22 30 C20.62242335 28.60670955 19.24744771 27.21084294 17.875 25.8125 C15.73749085 23.69960708 13.58881859 21.59884741 11.4375 19.5 C0.13202934 7.90464548 0.13202934 7.90464548 -0.125 2.25 C-0.08375 1.5075 -0.0425 0.765 0 0 Z " fill="#BDCCFA" transform="translate(222,131)"/>
<path d="M0 0 C1.2065625 0.0309375 1.2065625 0.0309375 2.4375 0.0625 C1.44706295 4.89878305 0.48051154 9.53868873 -1.5625 14.0625 C-2.2225 14.0625 -2.8825 14.0625 -3.5625 14.0625 C-3.8925 16.0425 -4.2225 18.0225 -4.5625 20.0625 C-8.0275 27.4875 -8.0275 27.4875 -11.5625 35.0625 C-23.1125 35.0625 -34.6625 35.0625 -46.5625 35.0625 C-46.8925 36.3825 -47.2225 37.7025 -47.5625 39.0625 C-48.9453125 40.73046875 -48.9453125 40.73046875 -50.6875 42.25 C-51.52667969 43.01376953 -51.52667969 43.01376953 -52.3828125 43.79296875 C-55.35551292 45.52438029 -58.17342891 45.72521834 -61.5625 46.0625 C-61.73265625 44.95132813 -61.9028125 43.84015625 -62.078125 42.6953125 C-63.29843882 35.08951634 -64.51673369 27.98860434 -67.79296875 20.9453125 C-68.5625 19.0625 -68.5625 19.0625 -68.5625 16.0625 C-67.24912604 15.0364266 -65.91585895 14.03522675 -64.5625 13.0625 C-64.5625 12.4025 -64.5625 11.7425 -64.5625 11.0625 C-65.5525 12.3825 -66.5425 13.7025 -67.5625 15.0625 C-68.2225 14.7325 -68.8825 14.4025 -69.5625 14.0625 C-68.9025 12.4125 -68.2425 10.7625 -67.5625 9.0625 C-69.50324861 9.33867533 -69.50324861 9.33867533 -71.5625 10.0625 C-72.2225 11.0525 -72.8825 12.0425 -73.5625 13.0625 C-74 10.9375 -74 10.9375 -73.5625 8.0625 C-70.57237053 4.15795785 -67.62624223 2.27524845 -62.8125 1.3125 C-57.25759708 1.71629451 -50.49563709 5.12936291 -46.5625 9.0625 C-32.12489529 10.57307434 -17.01693098 5.87631186 -3.5625 1.0625 C-2.5625 0.0625 -2.5625 0.0625 0 0 Z " fill="#5472FC" transform="translate(325.5625,199.9375)"/>
<path d="M0 0 C20.88390859 -0.7648227 20.88390859 -0.7648227 28 4 C28.64066406 4.37382813 29.28132813 4.74765625 29.94140625 5.1328125 C35.4192558 8.586488 37.95089518 12.85268554 40 19 C40.95456799 28.57697717 38.68545999 36.88102796 36 46 C34.32224601 52.30251935 32.73712812 58.51327256 32 65 C28.02497471 63.67499157 25.7719842 62.12965958 23 59 C22.0409375 57.948125 22.0409375 57.948125 21.0625 56.875 C14.15075782 47.24045029 12.36084456 37.19826602 10.328125 25.69921875 C8.05481504 13.52588953 8.05481504 13.52588953 1.34375 3.35742188 C0 2 0 2 0 0 Z " fill="#C4CFFD" transform="translate(257,105)"/>
<path d="M0 0 C0.99 0.99 0.99 0.99 2 2 C1.64325395 8.73701185 -1.24623563 15.24623563 -6 20 C-8.70536628 20.08972553 -11.30948393 20.06177347 -14.0078125 19.94921875 C-15.65100523 19.90927896 -17.29423697 19.87091894 -18.9375 19.83398438 C-21.52549919 19.76620111 -24.11152073 19.68805375 -26.69824219 19.58178711 C-38.09301797 18.66538562 -38.09301797 18.66538562 -47.9296875 23.39453125 C-48.45546387 24.0181958 -48.98124023 24.64186035 -49.52294922 25.28442383 C-51.22499724 27.26133151 -52.56635341 28.08399044 -55 29 C-56.32 29 -57.64 29 -59 29 C-59 31.31 -59 33.62 -59 36 C-64.53642384 35.37086093 -64.53642384 35.37086093 -66.875 33.5 C-69.09610784 31.65469505 -69.09610784 31.65469505 -72.875 31.75 C-75.63576016 31.5276916 -76.73478434 31.23108453 -78.8515625 29.38671875 C-80.32772809 27.64120541 -81.70297736 25.88166542 -83 24 C-84.65 24.99 -86.3 25.98 -88 27 C-90.75903196 24.75828653 -91.90469787 23.63988574 -92.4375 20.0625 C-91.95716115 16.70012806 -90.94405774 14.75408181 -89 12 C-88.46375 12.35964844 -87.9275 12.71929687 -87.375 13.08984375 C-84.11153316 14.34048154 -82.31067031 13.55983943 -79 12.5625 C-72.63819965 10.66191215 -72.63819965 10.66191215 -69 12 C-69.33 12.99 -69.66 13.98 -70 15 C-68.68 15 -67.36 15 -66 15 C-65.67 14.01 -65.34 13.02 -65 12 C-64.34 12 -63.68 12 -63 12 C-63 12.99 -63 13.98 -63 15 C-62.01 14.67 -61.02 14.34 -60 14 C-58.89771304 18.40914783 -58.92345464 22.48382401 -59 27 C-53.07451681 25.79071772 -49.08168115 23.53135788 -45 19 C-44.505 17.515 -44.505 17.515 -44 16 C-32.12 15.67 -20.24 15.34 -8 15 C-5.69 10.38 -3.38 5.76 -1 1 C-0.67 0.67 -0.34 0.34 0 0 Z " fill="#BFCEFA" transform="translate(323,219)"/>
<path d="M0 0 C9.49956789 3.38771355 17.38710158 10.22420625 24.5625 17.125 C37.17722418 29.08319578 51.9166043 34.18343982 69 36 C68.505 36.99 68.505 36.99 68 38 C67.34 38 66.68 38 66 38 C66 38.66 66 39.32 66 40 C52.57096946 43.20961533 39.75478374 40.89834727 28 34 C24.82439788 31.85492838 21.91173156 29.48906085 19 27 C18.01515625 26.17242187 17.0303125 25.34484375 16.015625 24.4921875 C9.50292868 18.87506308 3.54333547 13.00993441 0 5 C-0.171875 2.1796875 -0.171875 2.1796875 0 0 Z " fill="#BDC9FB" transform="translate(192,244)"/>
<path d="M0 0 C0.27328125 0.56976563 0.5465625 1.13953125 0.828125 1.7265625 C6.54717037 12.82151051 15.98282859 22.49925122 25.765625 30.16796875 C32.72908907 35.87752233 34.82218726 45.45618379 36 54 C36.29571863 59.00317459 36.18072739 63.99318206 36 69 C36 69.33 36 69.66 36 70 C36.68964844 69.94199219 37.37929688 69.88398438 38.08984375 69.82421875 C45.40540067 69.47299174 50.02414014 70.7613087 56 75 C56.33 75.33 56.66 75.66 57 76 C71.53552558 77.64110773 88.04334631 73.85152075 100.84375 66.91796875 C103.36657534 65.84393985 105.28526041 65.83271851 108 66 C103.46824865 69.69447627 98.48839081 71.16824957 93 73 C91.948125 73.35449219 90.89625 73.70898438 89.8125 74.07421875 C64.3290365 82.31346356 64.3290365 82.31346356 54.67578125 77.94921875 C52.5625 76.625 52.5625 76.625 50.75390625 75.2890625 C46.95304877 72.49555923 43.84187089 71.51671004 39.0390625 71.59765625 C35.43991877 72.30783212 33.549147 74.450853 31 77 C31.495 77.495 31.495 77.495 32 78 C33.32 78 34.64 78 36 78 C35.67 79.65 35.34 81.3 35 83 C35.45375 82.54625 35.9075 82.0925 36.375 81.625 C37.58333333 80.41666667 38.79166667 79.20833333 40 78 C39.75 80.375 39.75 80.375 39 83 C36.953125 84.1640625 36.953125 84.1640625 35 85 C35.30035156 85.68707031 35.60070312 86.37414062 35.91015625 87.08203125 C36.29042969 87.98308594 36.67070312 88.88414062 37.0625 89.8125 C37.44535156 90.70582031 37.82820313 91.59914063 38.22265625 92.51953125 C39 95 39 95 38 98 C36.99668752 96.01113278 36.00936148 94.02013897 35.0703125 92 C34.75835937 91.34 34.44640625 90.68 34.125 90 C33.81820312 89.34 33.51140625 88.68 33.1953125 88 C32.0409743 85.88001743 32.0409743 85.88001743 30.046875 84.06640625 C27.82837977 81.82674218 26.57914793 79.72667074 25.125 76.9375 C24.6196875 75.98101562 24.114375 75.02453125 23.59375 74.0390625 C23.0678125 73.03617187 22.541875 72.03328125 22 71 C20.87857311 68.93555504 19.75372848 66.8729619 18.625 64.8125 C17.75 63.20833333 16.875 61.60416667 16 60 C20.17087411 61.39029137 21.18208698 64.27843718 23.1875 67.9375 C23.55552734 68.58396484 23.92355469 69.23042969 24.30273438 69.89648438 C27 74.71553224 27 74.71553224 27 77 C29.35148243 75.74189834 29.35148243 75.74189834 31 73 C30.79505134 68.24226319 29.73712678 63.70742632 27.8515625 59.33984375 C27 57 27 57 28 54 C29.65 57.96 31.3 61.92 33 66 C33.49538566 54.97766912 33.31218192 42.3879297 25.75 33.5625 C24.52297572 32.35127431 23.27202472 31.16387687 22 30 C20.62242335 28.60670955 19.24744771 27.21084294 17.875 25.8125 C15.73749085 23.69960708 13.58881859 21.59884741 11.4375 19.5 C0.13202934 7.90464548 0.13202934 7.90464548 -0.125 2.25 C-0.063125 1.13625 -0.063125 1.13625 0 0 Z " fill="#BDCCFA" transform="translate(222,131)"/>
<path d="M0 0 C1 3 1 3 0.09130859 5.20141602 C-0.6229126 6.46489868 -0.6229126 6.46489868 -1.3515625 7.75390625 C-1.87363281 8.69169922 -2.39570313 9.62949219 -2.93359375 10.59570312 C-3.49175781 11.57474609 -4.04992187 12.55378906 -4.625 13.5625 C-9.99760433 23.12314649 -15.26032128 32.54062016 -19.0078125 42.87109375 C-20.04606358 45.09883721 -21.16593164 46.38871395 -23 48 C-23 47.34 -23 46.68 -23 46 C-23.66 46 -24.32 46 -25 46 C-28.03224258 38.98793903 -27.65847884 31.3371104 -26 24 C-25.01 24 -24.02 24 -23 24 C-22.85498047 23.1028125 -22.85498047 23.1028125 -22.70703125 22.1875 C-21.84405043 19.51750409 -20.86944182 18.73471151 -18.6875 17 C-14.18803196 13.2599703 -10.12140817 9.18092875 -6.0378418 5 C-2.2019028 1.1009514 -2.2019028 1.1009514 0 0 Z " fill="#C4CFFD" transform="translate(179,143)"/>
<path d="M0 0 C1.32 0 2.64 0 4 0 C4.50692692 1.5811292 5.00526443 3.16501383 5.5 4.75 C5.7784375 5.63171875 6.056875 6.5134375 6.34375 7.421875 C7 10 7 10 7 14 C7.66 14 8.32 14 9 14 C9.10957031 13.40832031 9.21914062 12.81664062 9.33203125 12.20703125 C11.04656011 3.66226546 11.04656011 3.66226546 14 0 C14.99 0 15.98 0 17 0 C16.14068823 4.81409892 14.81419415 9.48268495 13.5 14.1875 C13.27441406 15.00669922 13.04882812 15.82589844 12.81640625 16.66992188 C12.59855469 17.45302734 12.38070312 18.23613281 12.15625 19.04296875 C11.95837891 19.75477295 11.76050781 20.46657715 11.55664062 21.19995117 C11 23 11 23 10 25 C8.140625 24.8359375 8.140625 24.8359375 6 24 C4.734375 21.6015625 4.734375 21.6015625 3.75 18.625 C3.24726563 17.15933594 3.24726563 17.15933594 2.734375 15.6640625 C2 13 2 13 2 10 C1.34 10 0.68 10 0 10 C-0.0825 10.804375 -0.165 11.60875 -0.25 12.4375 C-1.20196675 16.95934205 -3.01580179 20.84702701 -5 25 C-5.99 24.67 -6.98 24.34 -8 24 C-8.79956055 22.20581055 -8.79956055 22.20581055 -9.38671875 19.88671875 C-9.60263672 19.05076172 -9.81855469 18.21480469 -10.04101562 17.35351562 C-10.36102539 16.03383789 -10.36102539 16.03383789 -10.6875 14.6875 C-10.91244141 13.81931641 -11.13738281 12.95113281 -11.36914062 12.05664062 C-12.34625517 8.18679184 -13 5.02929711 -13 1 C-10.525 1.495 -10.525 1.495 -8 2 C-7.01 5.63 -6.02 9.26 -5 13 C-3.35 8.71 -1.7 4.42 0 0 Z " fill="#16171B" transform="translate(156,303)"/>
<path d="M0 0 C1.17755859 -0.00773438 1.17755859 -0.00773438 2.37890625 -0.015625 C4.4375 0.25 4.4375 0.25 6.4375 2.25 C6.5625 4.875 6.5625 4.875 6.4375 7.25 C7.860625 7.4046875 7.860625 7.4046875 9.3125 7.5625 C12.4375 8.25 12.4375 8.25 14.4375 11.25 C14.4375 12.57 14.4375 13.89 14.4375 15.25 C8.23235526 17.38619737 3.01065478 18.61517527 -3.5625 18.25 C-3.5625 17.59 -3.5625 16.93 -3.5625 16.25 C-4.5525 16.25 -5.5425 16.25 -6.5625 16.25 C-7.2225 18.23 -7.8825 20.21 -8.5625 22.25 C-9.8825 21.92 -11.2025 21.59 -12.5625 21.25 C-12.875 18.0625 -12.875 18.0625 -12.5625 14.25 C-10.89583333 12.58333333 -9.22916667 10.91666667 -7.5625 9.25 C-7.48344936 6.91800612 -7.47451231 4.58167378 -7.5625 2.25 C-4.42838698 0.16059132 -3.58799528 -0.02364412 0 0 Z " fill="#B9C9FA" transform="translate(239.5625,212.75)"/>
<path d="M0 0 C8.75106202 -0.45879354 8.75106202 -0.45879354 13.0625 1.125 C15 3 15 3 16.0625 5.875 C16 9 16 9 14.25 11.875 C12 14 12 14 9 14 C9 14.66 9 15.32 9 16 C9.5775 16.268125 10.155 16.53625 10.75 16.8125 C13.07363365 18.0388622 15.03824646 19.24843434 17 21 C17 21.99 17 22.98 17 24 C10.94462479 23.69723124 7.48516542 20.72245962 3 17 C2.67 19.31 2.34 21.62 2 24 C0.68 24 -0.64 24 -2 24 C-1.86152362 20.37467934 -1.71297357 16.74984096 -1.5625 13.125 C-1.52318359 12.09246094 -1.48386719 11.05992187 -1.44335938 9.99609375 C-1.40146484 9.00996094 -1.35957031 8.02382813 -1.31640625 7.0078125 C-1.27974854 6.09660645 -1.24309082 5.18540039 -1.20532227 4.24658203 C-1 2 -1 2 0 0 Z M3 3 C3 5.64 3 8.28 3 11 C6.465 10.505 6.465 10.505 10 10 C10.33 8.35 10.66 6.7 11 5 C7.91190305 3.23537317 6.76687864 3 3 3 Z " fill="#232530" transform="translate(303,303)"/>
<path d="M0 0 C1.32 0 2.64 0 4 0 C7.85979038 7.8569843 11.04725559 15.45246086 13 24 C11.68 24.33 10.36 24.66 9 25 C6 19.25 6 19.25 6 17 C1.05 17.495 1.05 17.495 -4 18 C-4.0825 18.78375 -4.165 19.5675 -4.25 20.375 C-5 23 -5 23 -7.0625 24.3125 C-7.701875 24.539375 -8.34125 24.76625 -9 25 C-9.95849676 22.43361844 -10.08514104 21.25208983 -9.19555664 18.61816406 C-8.77137451 17.75932617 -8.34719238 16.90048828 -7.91015625 16.015625 C-7.22856445 14.61376953 -7.22856445 14.61376953 -6.53320312 13.18359375 C-6.04787109 12.21550781 -5.56253906 11.24742187 -5.0625 10.25 C-4.58103516 9.26644531 -4.09957031 8.28289062 -3.60351562 7.26953125 C-2.41280543 4.84095402 -1.21137576 2.41831774 0 0 Z M1 7 C0.34 8.98 -0.32 10.96 -1 13 C0.65 13 2.3 13 4 13 C3.34 11.02 2.68 9.04 2 7 C1.67 7 1.34 7 1 7 Z " fill="#2E3348" transform="translate(286,303)"/>
<path d="M0 0 C2.37109375 0.19140625 2.37109375 0.19140625 5 1 C6.22265625 3.15234375 6.22265625 3.15234375 7.0625 5.9375 C8.58766969 10.73178341 10.35043334 15.29690311 12.36328125 19.90625 C13 22 13 22 12 25 C11.01 25 10.02 25 9 25 C7.515 21.535 7.515 21.535 6 18 C2.7 18 -0.6 18 -4 18 C-4.66 19.98 -5.32 21.96 -6 24 C-7.32 24 -8.64 24 -10 24 C-9.48236791 18.18369756 -7.08813761 13.7151984 -4.4375 8.625 C-4.01275391 7.79355469 -3.58800781 6.96210938 -3.15039062 6.10546875 C-2.10745654 4.06647401 -1.05721708 2.0316151 0 0 Z M1 8 C0.34 9.65 -0.32 11.3 -1 13 C0.65 13 2.3 13 4 13 C3.67 11.35 3.34 9.7 3 8 C2.34 8 1.68 8 1 8 Z " fill="#2D3143" transform="translate(183,303)"/>
<path d="M0 0 C0.84691406 1.09634766 0.84691406 1.09634766 1.7109375 2.21484375 C3.90132481 4.99251944 3.90132481 4.99251944 6.2890625 7.19140625 C14.24388258 15.2659477 14.23210362 22.89428809 14.82861328 33.74609375 C15.62401469 44.20641545 20.72988875 54.05002436 25.03125 63.4453125 C25.38678955 64.2283374 25.7423291 65.0113623 26.10864258 65.81811523 C26.80855745 67.35526704 27.51628176 68.88889596 28.2331543 70.41821289 C30.47547508 75.33594898 32.68175265 80.54381792 33 86 C32.34 86.66 31.68 87.32 31 88 C30.5978125 86.45505859 30.5978125 86.45505859 30.1875 84.87890625 C27.40839026 74.63382134 23.6176022 65.37252277 18.91064453 55.87451172 C14.90907449 47.63749972 11.90972855 39.05278284 11.94140625 29.80078125 C11.9651572 19.72811518 10.43519802 14.61788145 3.54296875 7.125 C0.6196125 4.59597334 0.6196125 4.59597334 -3 4 C-4.82791496 4.99072031 -4.82791496 4.99072031 -6.5 6.6875 C-7.18320313 7.32300781 -7.86640625 7.95851562 -8.5703125 8.61328125 C-12.06420023 12.04537997 -15.53861114 15.49710604 -18.96289062 18.9987793 C-22.7921757 22.89608785 -22.7921757 22.89608785 -25 24 C-25.33 24.99 -25.66 25.98 -26 27 C-26.66 27 -27.32 27 -28 27 C-25.8346663 19.30103574 -19.34448498 13.96987847 -13.0546875 9.515625 C-10.11211616 7.34505907 -7.45213578 4.89009637 -4.76171875 2.41796875 C-3 1 -3 1 0 0 Z " fill="#B6C6F9" transform="translate(182,140)"/>
<path d="M0 0 C0.99 0.33 1.98 0.66 3 1 C2.97679687 1.95261719 2.95359375 2.90523438 2.9296875 3.88671875 C2.91164062 5.14097656 2.89359375 6.39523437 2.875 7.6875 C2.85179687 8.92886719 2.82859375 10.17023438 2.8046875 11.44921875 C2.98967979 14.81237857 3.54232105 16.9985587 5 20 C6.98 20 8.96 20 11 20 C11.84023188 15.64667264 12.10770995 11.55557481 12.0625 7.125 C12.05347656 5.97257812 12.04445312 4.82015625 12.03515625 3.6328125 C12.02355469 2.76398438 12.01195312 1.89515625 12 1 C13.9375 0.4375 13.9375 0.4375 16 0 C18.02636067 2.02636067 17.23049136 5.97977349 17.25 8.75 C17.270625 9.46671875 17.29125 10.1834375 17.3125 10.921875 C17.34614562 15.4976797 16.8161054 18.36675131 14 22 C11.08658529 24.36222814 9.70967977 25.02896652 5.9375 24.875 C2.9494619 23.9849461 1.23521639 23.1524306 -1 21 C-1.90238747 18.29283758 -2.11851302 16.76223232 -2.09765625 13.98828125 C-2.09443359 13.23095703 -2.09121094 12.47363281 -2.08789062 11.69335938 C-2.07951172 10.90767578 -2.07113281 10.12199219 -2.0625 9.3125 C-2.05798828 8.51521484 -2.05347656 7.71792969 -2.04882812 6.89648438 C-2.0370585 4.93095743 -2.01912348 2.96546915 -2 1 C-1.34 0.67 -0.68 0.34 0 0 Z " fill="#393F5F" transform="translate(221,303)"/>
<path d="M0 0 C2.9375 1.3125 2.9375 1.3125 5 3 C5 3.99 5 4.98 5 6 C2.42591418 5.48518284 -0.05690715 4.98195627 -2.5625 4.1875 C-5.08750864 3.76489095 -5.08750864 3.76489095 -7.3125 5.3125 C-9.8214797 9.30828249 -9.69086491 13.38887842 -9 18 C-7.12226736 20.30746414 -7.12226736 20.30746414 -4.0625 20.25 C-0.82717213 20.23517754 -0.82717213 20.23517754 2 18 C4.1875 18.375 4.1875 18.375 6 19 C0.21987952 24.93222892 0.21987952 24.93222892 -4.375 25.1875 C-9.43209877 24.92592593 -9.43209877 24.92592593 -12 23 C-15.40099918 19.1131438 -15.45427502 15.31965616 -15.28515625 10.37109375 C-14.75991143 6.00364712 -13.10146083 3.88728789 -9.75 1.1875 C-6.23330403 -0.33107326 -3.80039173 -0.40718483 0 0 Z " fill="#49527E" transform="translate(269,303)"/>
<path d="M0 0 C1.18851562 0.00902344 2.37703125 0.01804687 3.6015625 0.02734375 C4.51679688 0.03894531 5.43203125 0.05054688 6.375 0.0625 C6.375 1.0525 6.375 2.0425 6.375 3.0625 C3.96954362 4.26522819 2.42503047 4.16321472 -0.25 4.125 C-1.47589844 4.11146484 -1.47589844 4.11146484 -2.7265625 4.09765625 C-3.66628906 4.08025391 -3.66628906 4.08025391 -4.625 4.0625 C-4.625 6.0425 -4.625 8.0225 -4.625 10.0625 C-2.954375 9.7840625 -2.954375 9.7840625 -1.25 9.5 C2.375 9.0625 2.375 9.0625 4.375 10.0625 C4.045 11.3825 3.715 12.7025 3.375 14.0625 C0.405 14.0625 -2.565 14.0625 -5.625 14.0625 C-5.625 16.3725 -5.625 18.6825 -5.625 21.0625 C-1.995 21.0625 1.635 21.0625 5.375 21.0625 C5.375 22.0525 5.375 23.0425 5.375 24.0625 C3.06302845 24.25640729 0.7503971 24.44246367 -1.5625 24.625 C-3.49416016 24.78162109 -3.49416016 24.78162109 -5.46484375 24.94140625 C-6.50769531 24.98136719 -7.55054688 25.02132813 -8.625 25.0625 C-9.625 24.0625 -9.625 24.0625 -9.64672852 21.83764648 C-9.59959717 20.87930908 -9.55246582 19.92097168 -9.50390625 18.93359375 C-9.45556641 17.89912109 -9.40722656 16.86464844 -9.35742188 15.79882812 C-9.30134766 14.71021484 -9.24527344 13.62160156 -9.1875 12.5 C-9.13529297 11.40751953 -9.08308594 10.31503906 -9.02929688 9.18945312 C-8.89915852 6.48020924 -8.76417946 3.77129206 -8.625 1.0625 C-5.74084117 -0.37957941 -3.20778472 -0.03144887 0 0 Z " fill="#262936" transform="translate(332.625,302.9375)"/>
<path d="M0 0 C3.81587095 0.56250071 7.62675983 1.15380714 11.4375 1.75 C13.04141602 1.98589844 13.04141602 1.98589844 14.67773438 2.2265625 C23.26225795 3.59168552 31.66898237 5.66898237 38 12 C41.74758116 17.2983044 41.96398622 22.7530657 41 29 C39.43813052 34.17009579 37.19511726 39.07520324 35 44 C34.690625 44.81082031 34.38125 45.62164062 34.0625 46.45703125 C32.56680374 50.03680428 30.72148158 53.40335999 28.875 56.8125 C28.50246094 57.50537109 28.12992187 58.19824219 27.74609375 58.91210938 C26.83309623 60.60934836 25.91687284 62.30485138 25 64 C24.67 63.34 24.34 62.68 24 62 C25.05577618 59.48147246 26.16330646 57.06688622 27.375 54.625 C30.15829179 48.98960789 30.15829179 48.98960789 32 43 C32.66 43 33.32 43 34 43 C34.18175781 41.98679687 34.18175781 41.98679687 34.3671875 40.953125 C34.53476562 40.06109375 34.70234375 39.1690625 34.875 38.25 C35.11863281 36.92742187 35.11863281 36.92742187 35.3671875 35.578125 C35.96796264 33.13052256 36.77997117 31.19400143 38 29 C37.34 28.67 36.68 28.34 36 28 C36.66 27.67 37.32 27.34 38 27 C37.505 25.515 37.505 25.515 37 24 C37.66 24 38.32 24 39 24 C38.10510258 17.86928482 37.17020053 13.90637373 32 10 C26.69925788 7.37955785 21.83185819 6.29258475 16 5.5 C10.16535237 4.70703614 5.33041981 3.55179672 0 1 C0 0.67 0 0.34 0 0 Z " fill="#6980E9" transform="translate(290,171)"/>
<path d="M0 0 C6.27 0 12.54 0 19 0 C19 1.32 19 2.64 19 4 C16.36 4 13.72 4 11 4 C11 10.6 11 17.2 11 24 C9.68 24.33 8.36 24.66 7 25 C7 18.07 7 11.14 7 4 C4.69 4 2.38 4 0 4 C0 2.68 0 1.36 0 0 Z " fill="#15161E" transform="translate(197,303)"/>
<path d="M0 0 C0.66 0.66 1.32 1.32 2 2 C1.64325395 8.73701185 -1.24623563 15.24623563 -6 20 C-8.88916016 20.13525391 -8.88916016 20.13525391 -12.5390625 19.9765625 C-13.84101563 19.925 -15.14296875 19.8734375 -16.484375 19.8203125 C-17.86459379 19.75543042 -19.24480202 19.69032333 -20.625 19.625 C-22.01298149 19.56676301 -23.4010025 19.50945967 -24.7890625 19.453125 C-28.19320926 19.31128555 -31.59665846 19.15983765 -35 19 C-35 18.67 -35 18.34 -35 18 C-37.97 17.67 -40.94 17.34 -44 17 C-44 16.67 -44 16.34 -44 16 C-32.12 15.67 -20.24 15.34 -8 15 C-4.535 8.07 -4.535 8.07 -1 1 C-0.67 0.67 -0.34 0.34 0 0 Z " fill="#8398F1" transform="translate(323,219)"/>
<path d="M0 0 C4.13012748 2.53439641 7.45064164 4.81905228 10 9 C9.68359375 11.3359375 9.68359375 11.3359375 9 14 C8.78601563 14.85980469 8.57203125 15.71960938 8.3515625 16.60546875 C8.11179688 17.45753906 7.87203125 18.30960938 7.625 19.1875 C7.27308594 20.47720703 7.27308594 20.47720703 6.9140625 21.79296875 C6 24 6 24 3 26 C-0.44419134 8.14350797 -0.44419134 8.14350797 0 0 Z " fill="#5B77F5" transform="translate(223,200)"/>
<path d="M0 0 C1.32 0 2.64 0 4 0 C4.50692692 1.5811292 5.00526443 3.16501383 5.5 4.75 C5.7784375 5.63171875 6.056875 6.5134375 6.34375 7.421875 C7 10 7 10 7 14 C7.66 14 8.32 14 9 14 C9.10957031 13.40832031 9.21914062 12.81664062 9.33203125 12.20703125 C11.04656011 3.66226546 11.04656011 3.66226546 14 0 C14.99 0 15.98 0 17 0 C16.14068823 4.81409892 14.81419415 9.48268495 13.5 14.1875 C13.27441406 15.00669922 13.04882812 15.82589844 12.81640625 16.66992188 C12.59855469 17.45302734 12.38070312 18.23613281 12.15625 19.04296875 C11.95837891 19.75477295 11.76050781 20.46657715 11.55664062 21.19995117 C11 23 11 23 10 25 C8.140625 24.8359375 8.140625 24.8359375 6 24 C4.734375 21.6015625 4.734375 21.6015625 3.75 18.625 C3.41484375 17.64789063 3.0796875 16.67078125 2.734375 15.6640625 C2 13 2 13 2 10 C1.34 9.67 0.68 9.34 0 9 C0.99 8.67 1.98 8.34 3 8 C3.67220351 9.93558599 4.33758077 11.87354372 5 13.8125 C5.556875 15.43091797 5.556875 15.43091797 6.125 17.08203125 C7 20 7 20 7 23 C7.66 23 8.32 23 9 23 C9.66 20.03 10.32 17.06 11 14 C10.34 15.32 9.68 16.64 9 18 C8.34 18 7.68 18 7 18 C5.19003784 12.34244531 3.64270983 6.9129304 3 1 C2.01 1.33 1.02 1.66 0 2 C0 1.34 0 0.68 0 0 Z " fill="#303345" transform="translate(156,303)"/>
<path d="M0 0 C0.99 0.33 1.98 0.66 3 1 C2.52140759 2.60433809 2.04210442 4.20846416 1.5625 5.8125 C1.29566406 6.70582031 1.02882812 7.59914062 0.75390625 8.51953125 C0.19612127 10.35473055 -0.39344575 12.18033726 -1 14 C-1.52234828 21.73804319 -1.21871193 28.89044869 3.4375 35.4296875 C9.94831569 41.97305727 19.26909179 45.07053497 27.87109375 47.76171875 C32.05212699 49.41638484 34.85152366 51.85152366 38 55 C37.34 55.66 36.68 56.32 36 57 C35.60828613 56.5555957 35.21657227 56.11119141 34.81298828 55.65332031 C32.67509482 53.70370888 30.63004695 52.7333629 27.9921875 51.546875 C26.51105469 50.86431641 26.51105469 50.86431641 25 50.16796875 C22.94197772 49.23414114 20.8821199 48.30434666 18.8203125 47.37890625 C10.38664704 43.4788822 1.3893923 39.10215006 -2.34765625 30.078125 C-5.11377148 21.26630883 -3.15180732 13.82027953 -1 5 C-0.65725594 3.33524314 -0.32004778 1.66926879 0 0 Z " fill="#6A81E7" transform="translate(155,189)"/>
<path d="M0 0 C2 2 2 2 2.125 5.125 C2.08375 6.07375 2.0425 7.0225 2 8 C1.01 8.495 1.01 8.495 0 9 C-0.46523063 10.89533342 -0.46523063 10.89533342 -0.625 13.0625 C-0.74875 14.361875 -0.8725 15.66125 -1 17 C-2.98 15.68 -4.96 14.36 -7 13 C-6.34 12.01 -5.68 11.02 -5 10 C-6.0828125 10.7734375 -6.0828125 10.7734375 -7.1875 11.5625 C-10 13 -10 13 -12.6875 13 C-15 12 -15 12 -16.3125 9.4375 C-16.539375 8.633125 -16.76625 7.82875 -17 7 C-11.69276568 5.57294366 -7.46108889 4.5997208 -2 6 C-1.67 5.01 -1.34 4.02 -1 3 C-0.67 2.01 -0.34 1.02 0 0 Z " fill="#5C77F2" transform="translate(260,235)"/>
<path d="M0 0 C-0.33 0.99 -0.66 1.98 -1 3 C0.32 3 1.64 3 3 3 C3.33 2.01 3.66 1.02 4 0 C4.66 0 5.32 0 6 0 C5.8125 1.8125 5.8125 1.8125 5 4 C1.41319402 6.56569725 -1.8026448 7.62752504 -6.125 8.375 C-7.67574219 8.66503906 -7.67574219 8.66503906 -9.2578125 8.9609375 C-12 9 -12 9 -13.9296875 7.7890625 C-15 6 -15 6 -14.98828125 3.92578125 C-14 2 -14 2 -11.85546875 0.91796875 C-10.97503906 0.67691406 -10.09460938 0.43585938 -9.1875 0.1875 C-8.31480469 -0.06644531 -7.44210938 -0.32039062 -6.54296875 -0.58203125 C-3.96042001 -1.00650547 -2.44973359 -0.8394192 0 0 Z " fill="#5E79F1" transform="translate(254,231)"/>
<path d="M0 0 C0.61875 0.78375 1.2375 1.5675 1.875 2.375 C3.89858661 4.96837647 3.89858661 4.96837647 6 7 C5.67 7.99 5.34 8.98 5 10 C4.4225 9.195625 3.845 8.39125 3.25 7.5625 C0.94859878 4.94145972 0.35208021 4.27723972 -3 4 C-4.82791496 4.99072031 -4.82791496 4.99072031 -6.5 6.6875 C-7.18320313 7.32300781 -7.86640625 7.95851562 -8.5703125 8.61328125 C-12.06420023 12.04537997 -15.53861114 15.49710604 -18.96289062 18.9987793 C-22.7921757 22.89608785 -22.7921757 22.89608785 -25 24 C-25.33 24.99 -25.66 25.98 -26 27 C-26.66 27 -27.32 27 -28 27 C-25.8346663 19.30103574 -19.34448498 13.96987847 -13.0546875 9.515625 C-10.11211616 7.34505907 -7.45213578 4.89009637 -4.76171875 2.41796875 C-3 1 -3 1 0 0 Z " fill="#97A8EE" transform="translate(182,140)"/>
<path d="M0 0 C2.56538479 2.56538479 3.37357879 5.06045896 4.6875 8.4375 C5.14511719 9.59121094 5.60273438 10.74492187 6.07421875 11.93359375 C7 15 7 15 6 18 C4.68 17.67 3.36 17.34 2 17 C1.34 14.69 0.68 12.38 0 10 C-3.3 10.33 -6.6 10.66 -10 11 C-10.0825 11.78375 -10.165 12.5675 -10.25 13.375 C-11 16 -11 16 -13.0625 17.3125 C-13.701875 17.539375 -14.34125 17.76625 -15 18 C-15.93045933 15.44855176 -16.08564091 14.25993522 -15.22265625 11.640625 C-14.83980469 10.85171875 -14.45695312 10.0628125 -14.0625 9.25 C-13.68222656 8.45078125 -13.30195313 7.6515625 -12.91015625 6.828125 C-12.60980469 6.22484375 -12.30945313 5.6215625 -12 5 C-11 8.875 -11 8.875 -11 10 C-10.67 9.67 -10.34 9.34 -10 9 C-8.14712498 8.92773498 -6.29166122 8.9161878 -4.4375 8.9375 C-3.42558594 8.94652344 -2.41367187 8.95554687 -1.37109375 8.96484375 C-0.19740234 8.98224609 -0.19740234 8.98224609 1 9 C1.99 10.98 2.98 12.96 4 15 C3.79503906 14.41992188 3.59007812 13.83984375 3.37890625 13.2421875 C1.85990187 8.8378016 0.5952849 4.64322223 0 0 Z " fill="#40455D" transform="translate(292,310)"/>
<path d="M0 0 C0.33 0.99 0.66 1.98 1 3 C0.67 3.66 0.34 4.32 0 5 C-0.27785312 8.6815539 -0.22270258 11.39739303 1.0625 14.875 C3.77017535 17.84470845 6.09406118 17.77890912 10 18 C10.33 17.01 10.66 16.02 11 15 C12.65 14.67 14.3 14.34 16 14 C16 14.99 16 15.98 16 17 C12.74558399 19.77816001 10.65795749 20.93193543 6.375 21.375 C1 20.77777778 1 20.77777778 -1 19 C-3.10738917 13.27994368 -3.53157719 7.95338875 -2 2 C-1.34 1.34 -0.68 0.68 0 0 Z " fill="#0C0C0F" transform="translate(258,307)"/>
<path d="M0 0 C1.32 0.33 2.64 0.66 4 1 C-7.50801901 9.26855696 -18.01294077 11.34576658 -32 12 C-31.34 11.34 -30.68 10.68 -30 10 C-32.31 9.67 -34.62 9.34 -37 9 C-37 8.67 -37 8.34 -37 8 C-36.30438965 7.97494385 -35.6087793 7.9498877 -34.89208984 7.92407227 C-31.71956545 7.80754026 -28.54729645 7.68507432 -25.375 7.5625 C-23.73337891 7.50352539 -23.73337891 7.50352539 -22.05859375 7.44335938 C-20.99511719 7.40146484 -19.93164062 7.35957031 -18.8359375 7.31640625 C-17.86188965 7.27974854 -16.8878418 7.24309082 -15.88427734 7.20532227 C-12.8745148 6.99106712 -9.96704084 6.54068643 -7 6 C-7 5.34 -7 4.68 -7 4 C-4.69 3.34 -2.38 2.68 0 2 C0 1.34 0 0.68 0 0 Z " fill="#6A81E6" transform="translate(290,271)"/>
<path d="M0 0 C-0.33 1.32 -0.66 2.64 -1 4 C-0.01 4.66 0.98 5.32 2 6 C-1.90028225 8.60018816 -5.47434569 8.15085514 -10 8 C-10.33 5.69 -10.66 3.38 -11 1 C-3.375 -1.125 -3.375 -1.125 0 0 Z " fill="#5A75F1" transform="translate(246,223)"/>
<path d="M0 0 C0.66 0 1.32 0 2 0 C3.32 5.61 4.64 11.22 6 17 C6.66 17 7.32 17 8 17 C8.12375 16.401875 8.2475 15.80375 8.375 15.1875 C9 13 9 13 11 10 C10.49202991 14.3177458 9.80317221 18.03302114 8 22 C7.34 22 6.68 22 6 22 C5.32532438 20.25307205 4.66055844 18.50231475 4 16.75 C3.62875 15.77546875 3.2575 14.8009375 2.875 13.796875 C2 11 2 11 2 7 C-0.475 8.485 -0.475 8.485 -3 10 C-2.69201674 8.51988629 -2.378482 7.04092675 -2.0625 5.5625 C-1.88847656 4.73878906 -1.71445313 3.91507812 -1.53515625 3.06640625 C-1 1 -1 1 0 0 Z " fill="#0D0D0F" transform="translate(157,304)"/>
<path d="M0 0 C2.475 0.495 2.475 0.495 5 1 C5.99 5.95 6.98 10.9 8 16 C6.35 15.67 4.7 15.34 3 15 C2.49363393 13.25183142 1.99515381 11.50137737 1.5 9.75 C1.2215625 8.77546875 0.943125 7.8009375 0.65625 6.796875 C0 4 0 4 0 0 Z " fill="#282C3B" transform="translate(143,304)"/>
<path d="M0 0 C3.20943007 2.13962005 3.45992485 2.4425927 4.3125 5.9375 C4.49425781 6.62714844 4.67601562 7.31679687 4.86328125 8.02734375 C5 10 5 10 3 13 C0.375 13.1875 0.375 13.1875 -2 13 C-3.41000664 10.17998673 -3.24548451 8.12992745 -3 5 C-1.5 2.125 -1.5 2.125 0 0 Z " fill="#667EE9" transform="translate(234,231)"/>
<path d="M0 0 C0.66 0.66 1.32 1.32 2 2 C1.828125 4.0234375 1.828125 4.0234375 1.25 6.375 C1.06953125 7.14585937 0.8890625 7.91671875 0.703125 8.7109375 C-0.00097009 11.00315817 -0.75534348 12.94945078 -2 15 C-4.625 16.25 -4.625 16.25 -7 17 C-6.55611974 11.37751674 -4.09800282 4.09800282 0 0 Z " fill="#B1C0F7" transform="translate(323,219)"/>
<path d="M0 0 C1.61648437 0.01353516 1.61648437 0.01353516 3.265625 0.02734375 C4.08546875 0.03894531 4.9053125 0.05054687 5.75 0.0625 C5.75 0.7225 5.75 1.3825 5.75 2.0625 C4.60337891 2.08376953 4.60337891 2.08376953 3.43359375 2.10546875 C-8.51940445 2.63767204 -19.46307491 5.7847229 -29.61328125 12.2421875 C-30.15339844 12.51289062 -30.69351563 12.78359375 -31.25 13.0625 C-31.91 12.7325 -32.57 12.4025 -33.25 12.0625 C-23.66007913 5.4082692 -11.79763956 -0.12823521 0 0 Z " fill="#6A81E9" transform="translate(241.25,100.9375)"/>
<path d="M0 0 C3.16575136 3.16575136 4.15829274 5.31310559 5.75 9.4375 C6.42289062 11.13712891 6.42289062 11.13712891 7.109375 12.87109375 C7.9689772 15.89101199 8.14949552 17.14728855 7 20 C5.515 16.535 5.515 16.535 4 13 C0.37 13 -3.26 13 -7 13 C-7.33 13.66 -7.66 14.32 -8 15 C-8.66 14.67 -9.32 14.34 -10 14 C-9.34 12.02 -8.68 10.04 -8 8 C-4.7 8.66 -1.4 9.32 2 10 C1.34 6.7 0.68 3.4 0 0 Z " fill="#0E0F11" transform="translate(289,307)"/>
<path d="M0 0 C6.27 0 12.54 0 19 0 C19 1.32 19 2.64 19 4 C16.36 4 13.72 4 11 4 C11.66 3.34 12.32 2.68 13 2 C9.04 1.67 5.08 1.34 1 1 C1 1.66 1 2.32 1 3 C3.31 3 5.62 3 8 3 C8 9.93 8 16.86 8 24 C8.66 24.33 9.32 24.66 10 25 C9.01 25 8.02 25 7 25 C7 18.07 7 11.14 7 4 C4.69 4 2.38 4 0 4 C0 2.68 0 1.36 0 0 Z " fill="#4F5989" transform="translate(197,303)"/>
<path d="M0 0 C0.99 0.33 1.98 0.66 3 1 C2.34 1 1.68 1 1 1 C0.67 2.65 0.34 4.3 0 6 C-0.66 6 -1.32 6 -2 6 C-2 7.32 -2 8.64 -2 10 C1.3 9.67 4.6 9.34 8 9 C8.33 10.65 8.66 12.3 9 14 C8.34 14 7.68 14 7 14 C7 13.34 7 12.68 7 12 C3.24999436 12.01273347 -0.34045888 12.14178903 -4 13 C-6.3155324 15.87129568 -6.3155324 15.87129568 -7 19 C-7.76849965 16.74457325 -8.15628879 15.46093824 -7.37915039 13.16894531 C-7.03875732 12.56147461 -6.69836426 11.95400391 -6.34765625 11.328125 C-5.98349609 10.66425781 -5.61933594 10.00039063 -5.24414062 9.31640625 C-4.85419922 8.63449219 -4.46425781 7.95257813 -4.0625 7.25 C-3.48338867 6.20392578 -3.48338867 6.20392578 -2.89257812 5.13671875 C-1.93926363 3.4183988 -0.97104654 1.70836196 0 0 Z " fill="#0A0B0C" transform="translate(183,307)"/>
<path d="M0 0 C-0.66 0.66 -1.32 1.32 -2 2 C-2 2.99 -2 3.98 -2 5 C-0.68 5 0.64 5 2 5 C2.66 4.34 3.32 3.68 4 3 C3.875 4.875 3.875 4.875 3 7 C-1.05701058 8.88698167 -4.56542098 9.21117043 -9 9 C-9.1875 5.625 -9.1875 5.625 -9 2 C-5.5647952 -0.29013653 -4.014669 -0.17842973 0 0 Z " fill="#5C77F1" transform="translate(241,213)"/>
<path d="M0 0 C0.66 0.33 1.32 0.66 2 1 C1.59104492 1.79434448 1.59104492 1.79434448 1.17382812 2.60473633 C-0.05705352 5.00416652 -1.2786072 7.40822679 -2.5 9.8125 C-2.92925781 10.64587891 -3.35851562 11.47925781 -3.80078125 12.33789062 C-4.20683594 13.14033203 -4.61289063 13.94277344 -5.03125 14.76953125 C-5.40830078 15.50792236 -5.78535156 16.24631348 -6.17382812 17.00708008 C-7.19147572 19.10232085 -7.19147572 19.10232085 -7 22 C-6.01 20.02 -5.02 18.04 -4 16 C-0.37 16 3.26 16 7 16 C6.67 16.66 6.34 17.32 6 18 C2.7 18 -0.6 18 -4 18 C-4.66 19.98 -5.32 21.96 -6 24 C-7.32 24 -8.64 24 -10 24 C-9.48236791 18.18369756 -7.08813761 13.7151984 -4.4375 8.625 C-4.01275391 7.79355469 -3.58800781 6.96210938 -3.15039062 6.10546875 C-2.10745654 4.06647401 -1.05721708 2.0316151 0 0 Z " fill="#3B3E52" transform="translate(183,303)"/>
<path d="M0 0 C0.66 0.33 1.32 0.66 2 1 C1.01 2.485 1.01 2.485 0 4 C0.99 4.99 1.98 5.98 3 7 C3.99 4.69 4.98 2.38 6 0 C6.66 0 7.32 0 8 0 C8.33 3.63 8.66 7.26 9 11 C4.73833933 10.51572038 2.25097645 9.80256591 -1 7 C-1.99 6.34 -2.98 5.68 -4 5 C-2.25 1.125 -2.25 1.125 0 0 Z " fill="#A3B5F1" transform="translate(255,244)"/>
<path d="M0 0 C0.99 0.66 1.98 1.32 3 2 C1.9171875 3.20462891 1.9171875 3.20462891 0.8125 4.43359375 C-2.98449729 8.98865353 -5.51645639 14.22290481 -8.25 19.45507812 C-10.71197163 24.04434711 -13.09653903 27.53567839 -17 31 C-16.67 29.35 -16.34 27.7 -16 26 C-15.01 25.67 -14.02 25.34 -13 25 C-13 24.01 -13 23.02 -13 22 C-12.34 22 -11.68 22 -11 22 C-10.87625 21.443125 -10.7525 20.88625 -10.625 20.3125 C-9.94023145 17.77885636 -9.00866237 15.42078968 -8 13 C-7.34 13 -6.68 13 -6 13 C-5.7525 12.154375 -5.505 11.30875 -5.25 10.4375 C-3.86026373 6.61572526 -2.08879162 3.48131937 0 0 Z " fill="#697FE5" transform="translate(313,238)"/>
<path d="M0 0 C2 2 2 2 2.125 5.125 C2.08375 6.07375 2.0425 7.0225 2 8 C1.01 8.495 1.01 8.495 0 9 C-0.46523063 10.89533342 -0.46523063 10.89533342 -0.625 13.0625 C-0.810625 15.0115625 -0.810625 15.0115625 -1 17 C-2.98 15.68 -4.96 14.36 -7 13 C-6.01 12.01 -5.02 11.02 -4 10 C-4.66 8.68 -5.32 7.36 -6 6 C-4.68 6 -3.36 6 -2 6 C-1.67 5.01 -1.34 4.02 -1 3 C-0.67 2.01 -0.34 1.02 0 0 Z " fill="#8A9DEB" transform="translate(260,235)"/>
<path d="M0 0 C0.28571429 8.57142857 0.28571429 8.57142857 -2 12 C-3.32 11.67 -4.64 11.34 -6 11 C-6.36476427 4.67741935 -6.36476427 4.67741935 -4.6875 1.5625 C-3 0 -3 0 0 0 Z " fill="#637CED" transform="translate(233,223)"/>
<path d="M0 0 C1.79244141 0.01740234 1.79244141 0.01740234 3.62109375 0.03515625 C5.41740234 0.04869141 5.41740234 0.04869141 7.25 0.0625 C8.17683594 0.07410156 9.10367187 0.08570313 10.05859375 0.09765625 C10.05859375 1.08765625 10.05859375 2.07765625 10.05859375 3.09765625 C4.11859375 3.59265625 4.11859375 3.59265625 -1.94140625 4.09765625 C-2.27140625 6.40765625 -2.60140625 8.71765625 -2.94140625 11.09765625 C-3.27140625 11.09765625 -3.60140625 11.09765625 -3.94140625 11.09765625 C-3.96828776 9.45191059 -3.98774748 7.80604212 -4.00390625 6.16015625 C-4.01550781 5.24363281 -4.02710938 4.32710938 -4.0390625 3.3828125 C-3.89090453 -0.08408389 -3.52446843 0.11701422 0 0 Z " fill="#181920" transform="translate(328.94140625,302.90234375)"/>
<path d="M0 0 C-7.20489387 5.88427528 -17.15054837 7.74056554 -26 10 C-26.66 9.34 -27.32 8.68 -28 8 C-27.09378906 7.75765625 -26.18757813 7.5153125 -25.25390625 7.265625 C-18.86668832 5.5082952 -12.836526 3.61222138 -6.84375 0.75 C-4.49695796 -0.20462727 -2.5031849 -0.3229916 0 0 Z " fill="#B2C2F9" transform="translate(330,197)"/>
<path d="M0 0 C6.75 0.75 6.75 0.75 9 3 C8.625 5.625 8.625 5.625 8 8 C5.03 7.505 5.03 7.505 2 7 C1.4375 5.0625 1.4375 5.0625 1 3 C1.33 2.67 1.66 2.34 2 2 C1.34 1.34 0.68 0.68 0 0 Z " fill="#768AE0" transform="translate(243,221)"/>
<path d="M0 0 C3.88078217 -0.43933383 6.35825711 -0.28673619 9.9375 1.3125 C10.618125 1.869375 11.29875 2.42625 12 3 C12 3.99 12 4.98 12 6 C7.31261335 5.09276387 2.65806256 4.0452733 -2 3 C-1.34 2.01 -0.68 1.02 0 0 Z " fill="#2A3048" transform="translate(262,303)"/>
<path d="M0 0 C0.66 0.33 1.32 0.66 2 1 C1.01 1.33 0.02 1.66 -1 2 C-1 2.66 -1 3.32 -1 4 C-1.556875 4.226875 -2.11375 4.45375 -2.6875 4.6875 C-8.49810286 7.98540973 -12.68249786 13.98572518 -17 19 C-17 13.92101847 -13.30566903 10.64057734 -10 7 C-6.88794641 4.30139698 -3.69141641 1.8457082 0 0 Z " fill="#677EE4" transform="translate(206,114)"/>
<path d="M0 0 C0.33 0 0.66 0 1 0 C1.03738281 1.12019531 1.07476562 2.24039062 1.11328125 3.39453125 C1.17894257 4.8672209 1.24538986 6.33987566 1.3125 7.8125 C1.33505859 8.55048828 1.35761719 9.28847656 1.38085938 10.04882812 C1.55164043 14.25970191 1.55164043 14.25970191 3.40625 17.9375 C5.20688797 19.13792531 7.02569634 20.11496732 9 21 C6.36 21 3.72 21 1 21 C-3.03761755 6.07523511 -3.03761755 6.07523511 0 0 Z " fill="#070708" transform="translate(221,305)"/>
<path d="M0 0 C0.61875 0.78375 1.2375 1.5675 1.875 2.375 C3.89858661 4.96837647 3.89858661 4.96837647 6 7 C5.67 7.99 5.34 8.98 5 10 C4.4225 9.195625 3.845 8.39125 3.25 7.5625 C0.65387032 4.59650562 0.65387032 4.59650562 -3 4 C-4.99996325 5.17865648 -4.99996325 5.17865648 -6.75 6.9375 C-7.36359375 7.50339844 -7.9771875 8.06929687 -8.609375 8.65234375 C-9.29773438 9.31943359 -9.29773438 9.31943359 -10 10 C-10.66 9.67 -11.32 9.34 -12 9 C-10.56771184 7.68181446 -9.12897516 6.37063296 -7.6875 5.0625 C-6.88699219 4.33160156 -6.08648437 3.60070312 -5.26171875 2.84765625 C-3 1 -3 1 0 0 Z " fill="#9FB0F3" transform="translate(182,140)"/>
<path d="M0 0 C0.8971875 0.309375 0.8971875 0.309375 1.8125 0.625 C-3.9701087 6.55978261 -3.9701087 6.55978261 -8.6875 6.8125 C-12.1875 6.625 -12.1875 6.625 -14.1875 4.625 C-10.8875 4.625 -7.5875 4.625 -4.1875 4.625 C-4.5175 3.635 -4.8475 2.645 -5.1875 1.625 C-2.1875 -0.375 -2.1875 -0.375 0 0 Z " fill="#292C38" transform="translate(273.1875,321.375)"/>
<path d="M0 0 C1.32 0 2.64 0 4 0 C4.50692692 1.5811292 5.00526443 3.16501383 5.5 4.75 C5.7784375 5.63171875 6.056875 6.5134375 6.34375 7.421875 C7 10 7 10 7 14 C7.66 14 8.32 14 9 14 C9.33 13.01 9.66 12.02 10 11 C9.67 13.31 9.34 15.62 9 18 C8.34 18 7.68 18 7 18 C5.19003784 12.34244531 3.64270983 6.9129304 3 1 C2.01 1.33 1.02 1.66 0 2 C0 1.34 0 0.68 0 0 Z " fill="#393D50" transform="translate(156,303)"/>
<path d="M0 0 C11.385 0.99 11.385 0.99 23 2 C23 2.33 23 2.66 23 3 C7.25512528 4.70159453 7.25512528 4.70159453 0 1 C0 0.67 0 0.34 0 0 Z " fill="#798EEE" transform="translate(248,102)"/>
<path d="M0 0 C3.40667322 0.44824648 5.07914607 1.05276405 8 3 C8 3.99 8 4.98 8 6 C2.46153846 5.50769231 2.46153846 5.50769231 0.125 2.9375 C-0.431875 1.9784375 -0.431875 1.9784375 -1 1 C-0.67 0.67 -0.34 0.34 0 0 Z " fill="#242733" transform="translate(312,321)"/>
<path d="M0 0 C1.12377697 3.30435084 0.89554742 5.0506862 -0.4375 8.25 C-0.72496094 8.95640625 -1.01242188 9.6628125 -1.30859375 10.390625 C-1.53675781 10.92171875 -1.76492187 11.4528125 -2 12 C-2.66 12 -3.32 12 -4 12 C-6.42857143 5.71428571 -6.42857143 5.71428571 -5 2 C-4.67 3.65 -4.34 5.3 -4 7 C-3.34 7 -2.68 7 -2 7 C-1.855625 6.401875 -1.71125 5.80375 -1.5625 5.1875 C-1.1127561 3.43849596 -0.57107659 1.71322977 0 0 Z " fill="#040405" transform="translate(167,314)"/>
<path d="M0 0 C2.50298434 2.93828597 3.46930939 5.17902761 4 9 C2.35 9 0.7 9 -1 9 C-1.09765625 2.84765625 -1.09765625 2.84765625 -1 1 C-0.67 0.67 -0.34 0.34 0 0 Z " fill="#5573FA" transform="translate(234,234)"/>
<path d="M0 0 C2.31 0.33 4.62 0.66 7 1 C6.34 2.65 5.68 4.3 5 6 C3.35 5.67 1.7 5.34 0 5 C0 3.33333333 0 1.66666667 0 0 Z " fill="#ABBBF3" transform="translate(252,229)"/>
<path d="M0 0 C1.37302389 4.97721161 0.72346773 8.15274701 -1 13 C-1.99 12.67 -2.98 12.34 -4 12 C-3.33501617 7.61110675 -1.81242323 4.0188515 0 0 Z " fill="#2B2E3D" transform="translate(280,315)"/>
<path d="M0 0 C0.66 0.33 1.32 0.66 2 1 C2.9375 4.25 2.9375 4.25 3 8 C0.5625 10.9375 0.5625 10.9375 -2 13 C-2.99 12.34 -3.98 11.68 -5 11 C-3.68 10.67 -2.36 10.34 -1 10 C0.11701146 6.64896563 -0.262713 4.40995239 -1 1 C-0.67 0.67 -0.34 0.34 0 0 Z " fill="#B6C5F9" transform="translate(238,233)"/>
<path d="M0 0 C1.11544282 3.34632847 0.67217232 4.63913839 0 8 C0.33 8.99 0.66 9.98 1 11 C0.01 12.485 0.01 12.485 -1 14 C-1.33 13.34 -1.66 12.68 -2 12 C-2.99 12.495 -2.99 12.495 -4 13 C-3.52343588 11.20763933 -3.04366502 9.41613103 -2.5625 7.625 C-2.29566406 6.62726563 -2.02882812 5.62953125 -1.75390625 4.6015625 C-1 2 -1 2 0 0 Z " fill="#32364A" transform="translate(155,305)"/>
<path d="M0 0 C1.32 0 2.64 0 4 0 C3.67 1.65 3.34 3.3 3 5 C1.68 5.33 0.36 5.66 -1 6 C-1.33 5.34 -1.66 4.68 -2 4 C-1.0625 1.875 -1.0625 1.875 0 0 Z " fill="#B2C2F5" transform="translate(254,209)"/>
<path d="M0 0 C1.34771484 -0.00386719 1.34771484 -0.00386719 2.72265625 -0.0078125 C4.9375 0.125 4.9375 0.125 5.9375 1.125 C5.97813832 2.79117115 5.980221 4.45888095 5.9375 6.125 C5.2775 6.125 4.6175 6.125 3.9375 6.125 C3.6075 5.135 3.2775 4.145 2.9375 3.125 C1.844375 2.980625 0.75125 2.83625 -0.375 2.6875 C-4.0625 2.125 -4.0625 2.125 -7.0625 1.125 C-4.56110398 -0.12569801 -2.78857309 -0.00802467 0 0 Z " fill="#D5E3FC" transform="translate(256.0625,227.875)"/>
<path d="M0 0 C0 2.64 0 5.28 0 8 C-1.98 6.68 -3.96 5.36 -6 4 C-1.125 0 -1.125 0 0 0 Z " fill="#6980E8" transform="translate(259,244)"/>
<path d="M0 0 C1.65 0.33 3.3 0.66 5 1 C4.34 2.32 3.68 3.64 3 5 C1.68 4.67 0.36 4.34 -1 4 C-0.67 2.68 -0.34 1.36 0 0 Z " fill="#BBCAF8" transform="translate(245,223)"/>
<path d="M0 0 C0.99 0.33 1.98 0.66 3 1 C3 1.66 3 2.32 3 3 C4.98 3 6.96 3 9 3 C9 3.33 9 3.66 9 4 C5.92382812 4.29296875 5.92382812 4.29296875 2.84765625 4.5859375 C2.23792969 4.72257812 1.62820313 4.85921875 1 5 C0.67 5.66 0.34 6.32 0 7 C-0.66 6.67 -1.32 6.34 -2 6 C-1.34 4.02 -0.68 2.04 0 0 Z " fill="#040404" transform="translate(281,315)"/>
<path d="M0 0 C0 1.98 0 3.96 0 6 C-1.65 5.67 -3.3 5.34 -5 5 C-4.625 3.0625 -4.625 3.0625 -4 1 C-2 0 -2 0 0 0 Z " fill="#A3B5F2" transform="translate(243,213)"/>
<path d="M0 0 C0 3.92896395 -1.00299863 7.19893228 -2 11 C-4 9.625 -4 9.625 -6 8 C-6 6 -6 6 -3.5625 3.4375 C-2.716875 2.633125 -1.87125 1.82875 -1 1 C-0.67 0.67 -0.34 0.34 0 0 Z " fill="#6A81E5" transform="translate(187,133)"/>
<path d="M0 0 C1.125 3.75 1.125 3.75 0 6 C0.66 6 1.32 6 2 6 C1 9 1 9 -2 11 C-1.85892253 9.54119891 -1.71197585 8.08296449 -1.5625 6.625 C-1.48128906 5.81289063 -1.40007812 5.00078125 -1.31640625 4.1640625 C-1 2 -1 2 0 0 Z " fill="#252732" transform="translate(168,306)"/>
<path d="M0 0 C0.99 0 1.98 0 3 0 C5.42857143 6.28571429 5.42857143 6.28571429 4 10 C3.54625 8.88625 3.0925 7.7725 2.625 6.625 C1.27534014 3.03800992 1.27534014 3.03800992 -1 1 C-0.67 0.67 -0.34 0.34 0 0 Z " fill="#050506" transform="translate(292,317)"/>
<path d="M0 0 C0 1.32 0 2.64 0 4 C-0.66 4 -1.32 4 -2 4 C-2 3.34 -2 2.68 -2 2 C-4.64 2 -7.28 2 -10 2 C-10 1.67 -10 1.34 -10 1 C-3.375 -1.125 -3.375 -1.125 0 0 Z " fill="#020202" transform="translate(192,317)"/>
<path d="M0 0 C0.66 0 1.32 0 2 0 C2 1.98 2 3.96 2 6 C2.66 6 3.32 6 4 6 C3.34 7.32 2.68 8.64 2 10 C1.67 10 1.34 10 1 10 C0.67 6.7 0.34 3.4 0 0 Z " fill="#647CE6" transform="translate(225,216)"/>
<path d="M0 0 C-0.33 0.99 -0.66 1.98 -1 3 C-3.64 3 -6.28 3 -9 3 C-6.31795079 0.31795079 -3.73391546 0 0 0 Z " fill="#363D59" transform="translate(217,304)"/>
<path d="M0 0 C0.99 0.33 1.98 0.66 3 1 C3 2.32 3 3.64 3 5 C1.35 4.67 -0.3 4.34 -2 4 C-1.34 2.68 -0.68 1.36 0 0 Z " fill="#1C1E2A" transform="translate(185,303)"/>
<path d="M0 0 C0.33 0.66 0.66 1.32 1 2 C2.32 1.34 3.64 0.68 5 0 C4.1875 1.9375 4.1875 1.9375 3 4 C2.01 4.33 1.02 4.66 0 5 C0 4.34 0 3.68 0 3 C-0.66 2.67 -1.32 2.34 -2 2 C-1.34 1.34 -0.68 0.68 0 0 Z " fill="#8598E8" transform="translate(315,234)"/>
</svg>
